<svg width="71" height="69" viewBox="0 0 71 69" fill="none" xmlns="http://www.w3.org/2000/svg">
<path fill-rule="evenodd" clip-rule="evenodd" d="M35.0003 8.69854e-05C26.691 0.00120524 18.6531 2.95854 12.3245 8.34307C5.99589 13.7276 1.78941 21.1881 0.457513 29.3899C-0.874387 37.5918 0.755185 46 5.05473 53.1104C9.35427 60.2208 16.0433 65.5697 23.9252 68.2001C25.6752 68.5251 26.4252 67.4501 26.4252 66.5251V60.5751C16.7002 62.6751 14.6502 55.8751 14.6502 55.8751C13.9664 53.7322 12.527 51.9108 10.6002 50.7501C7.42525 48.6001 10.8502 48.6251 10.8502 48.6251C11.9593 48.7818 13.0178 49.1898 13.945 49.8181C14.8722 50.4463 15.6436 51.2782 16.2002 52.2501C17.1686 53.9869 18.7871 55.2681 20.6998 55.8119C22.6126 56.3557 24.663 56.1177 26.4003 55.1501C26.5414 53.3763 27.3234 51.7145 28.6003 50.4751C20.8503 49.5751 12.6752 46.5751 12.6752 33.1751C12.6186 29.6948 13.9083 26.3272 16.2752 23.7751C15.2039 20.7606 15.3292 17.45 16.6252 14.5251C16.6252 14.5251 19.5503 13.5751 26.2502 18.1001C31.9789 16.5375 38.0216 16.5375 43.7502 18.1001C50.4252 13.5751 53.3503 14.5251 53.3503 14.5251C54.6463 17.45 54.7716 20.7606 53.7002 23.7751C56.0672 26.3272 57.3569 29.6948 57.3002 33.1751C57.3002 46.6251 49.1252 49.5751 41.3252 50.4501C42.1608 51.297 42.8051 52.3131 43.2148 53.4301C43.6245 54.547 43.79 55.7388 43.7002 56.9251V66.5251C43.7002 67.6751 44.3252 68.5501 46.2002 68.2001C54.0926 65.5664 60.7885 60.2073 65.0874 53.0837C69.3863 45.9602 71.0068 37.5382 69.6585 29.3281C68.3102 21.1179 64.0812 13.6565 57.7299 8.28201C51.3786 2.90749 43.3204 -0.0286567 35.0003 8.69854e-05Z" fill="black"/>
</svg>
